<svg xmlns="http://www.w3.org/2000/svg" xmlns:xlink="http://www.w3.org/1999/xlink" width="50" height="50" viewBox="0 0 100 100"><g><g transform="translate(50 50) scale(0.69 0.69) rotate(0) translate(-50 -50)" style="fill:#003595"><svg fill="#003595" xmlns="http://www.w3.org/2000/svg" xmlns:xlink="http://www.w3.org/1999/xlink" xml:space="preserve" version="1.1" style="shape-rendering:geometricPrecision;text-rendering:geometricPrecision;image-rendering:optimizeQuality;" viewBox="0 0 385 418" x="0px" y="0px" fill-rule="evenodd" clip-rule="evenodd"><defs><style type="text/css">
   
    .fil0 {fill:#003595}
   
  </style></defs><g><path class="fil0" d="M156 323c-27,0 -48,21 -48,48 0,26 21,47 48,47 26,0 48,-21 48,-47 0,-27 -22,-48 -48,-48zm0 66c-10,0 -19,-8 -19,-18 0,-11 9,-19 19,-19 10,0 18,8 18,19 0,10 -8,18 -18,18z"></path><path class="fil0" d="M302 323c-26,0 -47,21 -47,48 0,26 21,47 47,47 27,0 48,-21 48,-47 0,-27 -21,-48 -48,-48zm0 66c-10,0 -18,-8 -18,-18 0,-11 8,-19 18,-19 11,0 19,8 19,19 0,10 -8,18 -19,18z"></path><path class="fil0" d="M114 308l228 0c19,0 19,-29 0,-29l-215 0 -5 -27 209 0c6,0 12,-5 14,-11l39 -122c4,-10 -4,-20 -13,-20l-273 0 -13 -77c-1,-6 -6,-11 -12,-12l-56 -10c-19,-3 -24,26 -5,29l46 8 42 259c1,7 7,12 14,12zm4 -86l-16 -93 248 0 -30 93 -202 0z"></path></g></svg></g></g></svg>